<svg xmlns:inkscape="http://www.inkscape.org/namespaces/inkscape" xmlns:sodipodi="http://sodipodi.sourceforge.net/DTD/sodipodi-0.dtd" xmlns="http://www.w3.org/2000/svg" xmlns:svg="http://www.w3.org/2000/svg" version="1.1" id="svg1" width="555.21" height="613.05" viewBox="0 0 555.21 613.05" sodipodi:docname="grand-salami-logo-june5.eps" style="&#10;    height: 3em;&#10;    width: auto;&#10;">
  <defs id="defs1"/>
  <sodipodi:namedview id="namedview1" pagecolor="#ffffff" bordercolor="#000000" borderopacity="0.25" inkscape:showpageshadow="2" inkscape:pageopacity="0.0" inkscape:pagecheckerboard="0" inkscape:deskcolor="#d1d1d1">
    <inkscape:page x="0" y="0" inkscape:label="1" id="page1" width="1625.36" height="1409.5732" margin="0" bleed="0"/>
  </sodipodi:namedview>
  <g id="g1" inkscape:groupmode="layer" inkscape:label="1">
    <g id="group-R5">
      
      
      
      
      
      
      
      
      
      
      
      
      
      
      
      
      
      
      <path id="path20" d="m 1108.96,10571.8 v 0 c -33.11,0 -64.93,-8.7 -98.61,-18 -6.41,-1.8 -12.623,-3.4 -19.018,-5.1 -30.035,-8 -52.254,-20.8 -68.676,-35.1 -69.601,-8.3 -128.597,-68 -166.433,-168.8 -12.25,-32.4 -41.121,-108.6 -3.121,-175.7 27.457,-48.5 74.699,-69.2 119.757,-80.8 -64.117,-118.43 -88.207,-243.83 -73.48,-380.4 3.523,-32.36 9.047,-64.47 16.297,-96.51 -83.27,158.13 -166.442,310.03 -234.77,422.61 -47.23,77.7 -119.043,130 -202.226,147.1 -19.465,4 -39.34,6 -59.2,6 -66.238,0 -131.855,-21.9 -189.757,-63.4 C 54.25,10069.7 8.54688,9988.2 1.10547,9894.13 -5.95703,9804.89 20.9648,9711.76 78.9609,9624.79 328.793,9250.05 529.563,8978.6 706.699,8739.11 c 42.864,-57.87 88.789,-119.98 134.426,-182.43 36.148,-49.37 72.457,-100.06 108.484,-151.44 -90.636,-49.1 -164.054,-98.36 -218.929,-146.96 -77.364,-68.51 -160.547,-176.09 -117.5,-299.54 63.054,-180.57 252.816,-208.23 360.324,-208.66 h 2.715 c 49.501,0 96.351,4.99 134.261,10.83 17.16,-14.03 35.72,-26.26 55.59,-36.63 -19.37,-126.52 -30.34,-257.51 0.97,-381.75 24.28,-96.15 73.18,-180.69 145.36,-251.3 60.64,-59.31 137.99,-110.13 235.49,-154.59 -11.47,-22.99 -27.33,-45.33 -49.26,-62.32 -23.18,-17.98 -51.33,-28.94 -85.44,-33.18 -33.45,59.13 -83.6,96.62 -145.24,107.43 -11.63,2 -23.12,2.99 -34.44,2.99 -6.98,0.01 -13.94,-0.37 -20.85,-1.11 -3.42,1.75 -7.03,3.52 -10.83,5.27 -1.93,0.98 -3.91,1.89 -5.94,2.72 -37.63,16.5 -77.08,24.87 -117.28,24.87 -41.77,0 -83.376,-9.16 -123.657,-27.25 -101.699,-45.6 -192.699,-148.35 -270.433,-305.39 -81.047,-163.61 -92.665,-307.99 -34.524,-429.11 83.34,-173.64 274.024,-220.17 295.496,-224.9 16.61,-3.74 106.718,-22.78 216.098,-22.78 h 0.06 0.47 c 105.35,0 195.38,17.39 267.9,51.68 37.34,17.64 65.4,48.41 78.98,86.64 13.34,37.92 10.03,75.61 3.45,103.72 10.54,40.27 17.15,98.48 -7.43,154.71 -14.31,32.8 -36.88,59.8 -66.47,79.88 98.07,0.89 188.74,22.33 269.57,63.79 121.72,62.44 215.12,167.25 278.25,312 13.16,-0.54 26.26,-0.82 39.25,-0.82 148.74,0 292.35,35.04 426.86,104.14 72,37.01 141.47,84.23 207.01,140.66 36.54,-10.46 80.75,-26.43 124.87,-50.46 125.61,-68.44 199.03,-169.19 223.48,-307.17 -31.2,-32.42 -50.1,-72.12 -55.12,-116.48 -5.96,-52.14 9.19,-100.21 26.77,-136.35 -36.35,-80.73 -44.13,-161.21 -43.57,-218.23 v -0.01 -0.6 c 0.67,-66.56 11.96,-115.7 15.52,-129.61 0.31,-1.34 0.65,-2.67 1.03,-3.99 1,-3.73 2.23,-7.42 3.69,-11.04 1.49,-3.97 3.3,-7.82 5.42,-11.52 1.46,-2.69 3.06,-5.32 4.8,-7.87 4.39,-6.75 9.67,-13.01 15.77,-18.65 l 0.58,-0.54 0.59,-0.52 c 0.81,-0.73 1.64,-1.44 2.47,-2.14 l 5.83,-5.96 8.27,-4.16 c 2.64,-1.58 5.39,-3.07 8.26,-4.46 8.52,-4.23 18.22,-8.36 28.84,-12.28 41.19,-15.15 112.42,-33.16 218.53,-33.16 h 0.06 0.49 c 149.18,0 320.18,34.76 508.6,103.32 232.26,84.4 360.54,182.9 392.14,301.12 17.77,65.99 -0.66,118.32 -15.58,146.68 -12.51,50.84 -51.85,169.53 -157.54,243.98 -57.24,40.29 -123.73,60.71 -197.66,60.71 -25.08,0 -51.23,-2.41 -77.74,-7.17 -93.05,-16.68 -168.42,-54.22 -224.68,-111.81 -1.22,0.04 -2.46,0.08 -3.72,0.11 -14.9,32.23 -37.73,58.48 -67.36,76.95 -10.19,57.21 -29.8,130.82 -67.41,209.66 -59.21,124.12 -176.47,285.32 -404.93,388.28 77.17,127.21 137.13,265.99 165.38,385.46 7.01,29.85 13.26,62.16 18.65,96.39 4.61,5.94 9.14,11.95 13.55,18 112.1,153.6 110.02,289.37 88.53,376.21 -18.91,76.42 -56.83,133.94 -83.73,167.37 -14.23,212.06 -57.05,523.07 -177.71,847.82 -124.98,336.36 -306.84,618.68 -540.55,839.14 -311.23,293.6 -615.63,355.3 -816.19,355.3 -119.8,0 -240.71,-22 -348.84,-62.9 -6.99,52.4 -28.69,91.5 -64.58,116.5 -24.72,17 -53.49,25.6 -85.74,25.6 z m 0,-80 c 14.92,0 28.25,-3.2 40.06,-11.3 24.3,-16.9 29.8,-47.3 31.8,-68.7 3.4,-36.5 15.7,-68.5 30.6,-90.3 98.7,49.9 236.5,91.1 396.7,91.1 224.8,0 493.8,-81.1 761.3,-333.5 491.5,-463.62 664.7,-1139.62 695,-1660.72 35,-36.9 186.7,-220.6 8.7,-464.5 -7.8,-10.7 -16.1,-21.4 -24.8,-31.9 -5.9,-41.1 -12.9,-78.4 -20.6,-111.2 -28,-118.4 -97.8,-284.9 -208.2,-442.6 264.1,-88 392.1,-255.5 453.4,-384 44.8,-93.9 61,-179.3 66.9,-230.3 9.1,-2.3 17.7,-5.7 25.8,-10.1 23,-12.7 48.8,-38.9 53.7,-92.6 14.34,0.82 27.71,1.13 39.72,1.13 30.64,0 52.47,-2.01 59.08,-2.73 45.8,60.6 114.5,99.3 204.3,115.4 21.98,3.94 43.2,5.91 63.61,5.91 57.19,0 108.03,-15.45 151.59,-46.11 93.7,-66 122.6,-180.7 128.3,-208.1 8.8,-13.5 26.5,-48.6 13.6,-96.5 -24,-89.8 -139.1,-172.8 -342.2,-246.6 -210.8,-76.7 -369.1,-98.5 -480.9,-98.5 -0.3,0 -0.6,0 -0.9,0 -97.68,0 -159.9,16.83 -190.8,28.2 -11.1,4.1 -18.2,7.5 -21.4,9.1 -1.9,0.9 -3.1,1.7 -3.6,2.1 -0.1,0.1 -0.2,0.1 -0.3,0.2 -1,0.7 -2,1.5 -2.9,2.3 -1.4,1.3 -2.6,2.7 -3.5,4.3 -0.7,0.9 -1.3,1.9 -1.7,2.9 -0.2,0.2 -0.3,0.4 -0.3,0.6 -0.6,1.2 -1.1,2.5 -1.4,3.8 0,0.1 -0.2,0.5 -0.3,1.2 -2.1,7.8 -12.8,51.9 -13.4,112 0,0.1 0,0.1 0,0.2 -0.6,57 8.4,141.4 54.6,220 -16.6,24.3 -44.2,73.6 -38.3,125.2 3.9,34.5 21.4,63.6 52.1,86.5 2.8,2.1 5.7,4.2 8.8,6.4 -19.2,184.9 -110.1,322.6 -270.5,410 -67.4,36.7 -134.8,57.1 -184.7,68.2 -66,-61.2 -140.1,-115.4 -222,-157.5 -123.6,-63.5 -254,-95.3 -390.3,-95.3 -30.4,0 -61,1.6 -92,4.8 -55.4,-154.8 -143.3,-263.9 -262,-324.8 -82.3,-42.2 -167,-55 -239.4,-55 -34.1,0 -65.4,2.8 -92.5,6.8 -5,-7.5 -10.5,-14.4 -16.5,-20.7 -25.2,-26.6 -56.9,-41.3 -92,-42.4 -2,-18.9 -1.4,-42.5 9.9,-48 37.3,-3.5 76.7,-11.4 118.1,-25.2 35.1,-11.7 59.5,-32.6 72.5,-62.4 20.2,-46.2 5.3,-99.7 -2.8,-122.2 6.1,-16.4 14.9,-48.4 4.7,-77.4 -6.5,-18.3 -19.6,-32.5 -37.8,-41.1 -71.9,-34 -157.5,-44 -233.4,-44 -0.28,0 -0.55,0 -0.83,0 -105.72,0 -192.688,19.51 -198.871,20.9 -6.801,1.5 -172.403,39.3 -240.602,181.4 -46.898,97.7 -35.5,218.5 34.102,359 69.301,140 147.199,230.1 231.5,267.9 32.841,14.74 63.481,20.23 90.891,20.23 34.69,0 64.22,-8.79 86.51,-18.73 0.3,-0.1 0.6,-0.2 0.8,-0.4 13.8,-6.2 24.8,-12.8 32.4,-18.1 h 0.1 c 11.36,3.64 23.09,5.49 35.09,5.49 6.79,0 13.67,-0.6 20.61,-1.79 62.1,-10.9 92.8,-64.5 107.8,-110.3 5.72,-0.23 11.37,-0.35 16.95,-0.35 67.73,0 124.21,17.39 168.75,51.95 62.1,48.1 88.8,120.8 100.3,170.2 -7.9,3.1 -15.8,6.2 -23.7,9.5 -217.6,89.3 -338.2,207.3 -379.6,371.3 -31.1,123.4 -15.4,259.3 10.7,412.5 -39.8,11.3 -83,32.6 -119.4,72 -39,-7.7 -97.4,-16.5 -159.701,-16.5 h -2.403 c -151.398,0.6 -249.898,54.2 -285.097,155 -50.801,145.7 177.898,292.9 378.701,390.7 -50.2,73.1 -104.002,149.3 -161.701,228.1 -43.699,59.8 -88.403,120.3 -134.699,182.8 -176.704,238.9 -376.903,509.6 -625.5,882.5 -97.7036,146.5 -85.0044,306.7 30.796,389.52 44.438,31.8 94.059,48.4 143.161,48.4 14.441,0 28.839,-1.4 43.039,-4.3 61.101,-12.6 114.402,-51.7 150,-110.32 228.101,-375.8 621.904,-1191.3 625.904,-1199.5 1.8,-3.6 66.3,-134.8 159.9,-317.9 7.8,3 14.7,5.6 20.6,7.7 -10.5,102.5 -33.6,208.7 -75.2,318.7 -50.9,134.5 -110.4,257.2 -167.9,375.9 -95.703,197.6 -178.304,368.2 -196.902,539.1 -16.801,155.8 22.996,293.72 125.002,426.62 -19.604,4.3 -41.9,8.9 -66.604,13.4 -55.699,10.2 -96.398,19.9 -114.597,52 -17.102,30.2 -6.102,69.9 8.398,108.2 26.699,71.1 64,114 102.403,117.6 1.546,0.1 3.257,0.2 5.105,0.2 5.785,0 12.887,-0.9 20.395,-3.9 0.199,0.9 0.597,1.8 0.996,2.6 8.8,18.6 26.203,31.4 51.504,38.1 6.9,1.8 13.6,3.6 20,5.4 29.44,8.1 55.2,15.1 77.44,15.1" style="fill:#e9cbae;fill-opacity:1;fill-rule:nonzero;stroke:none" transform="matrix(0.13333333,0,0,-0.13333333,0,1409.5733)"/>
      <path id="path21" d="m 1175.91,6846.58 c 0,0 -83.73,76.95 -285.969,-228.15 -99.296,-149.8 -96.355,-309.59 -15.722,-345.25 0,0 279.891,190.17 346.611,132.8 0,0 -15.55,41.51 -10.46,94.14 0,0 -203.47,68.32 -34.46,346.46" style="fill:#a28052;fill-opacity:1;fill-rule:nonzero;stroke:none" transform="matrix(0.13333333,0,0,-0.13333333,0,1409.5733)"/>
      <path id="path22" d="m 874.219,6273.18 c 0,0 195.711,209.55 477.131,104.1 81.58,-30.57 91.31,-149.67 50.67,-161.2 -348.6,-98.86 -527.801,57.1 -527.801,57.1" style="fill:#e9cbae;fill-opacity:1;fill-rule:nonzero;stroke:none" transform="matrix(0.13333333,0,0,-0.13333333,0,1409.5733)"/>
      <path id="path23" d="m 2559.21,7196.29 c 0,0 542.82,-34.73 562.26,-563.37 l 196.65,72.3 c 0,0 3.42,497.37 -552.2,653.25 l -206.71,-162.18" style="fill:#a72a2b;fill-opacity:1;fill-rule:nonzero;stroke:none" transform="matrix(0.13333333,0,0,-0.13333333,0,1409.5733)"/>
      <path id="path24" d="m 2559.21,7196.29 c 0,0 542.82,-34.73 562.26,-563.37 l 196.65,72.3 c 0,0 3.42,497.37 -552.2,653.25 z" style="fill:none;stroke:#231f20;stroke-width:60;stroke-linecap:round;stroke-linejoin:round;stroke-miterlimit:10;stroke-dasharray:none;stroke-opacity:1" transform="matrix(0.13333333,0,0,-0.13333333,0,1409.5733)"/>
      <path id="path25" d="m 3101.23,6462.4 c 0,0 -99.64,118.08 -1.91,191.32 97.73,73.24 310.6,151.31 294.94,-40.2 -16.16,-197.77 -293.03,-151.12 -293.03,-151.12" style="fill:#e9cbae;fill-opacity:1;fill-rule:nonzero;stroke:none" transform="matrix(0.13333333,0,0,-0.13333333,0,1409.5733)"/>
      <path id="path26" d="m 3101.23,6462.4 c 0,0 -99.64,118.08 -1.91,191.32 97.73,73.24 310.6,151.31 294.94,-40.2 -16.16,-197.77 -293.03,-151.12 -293.03,-151.12 z" style="fill:none;stroke:#231f20;stroke-width:60;stroke-linecap:round;stroke-linejoin:round;stroke-miterlimit:10;stroke-dasharray:none;stroke-opacity:1" transform="matrix(0.13333333,0,0,-0.13333333,0,1409.5733)"/>
      <path id="path27" d="m 3040.95,6242.06 c -35.54,63.77 29.48,258.69 200.5,342.02 120.48,58.7 248.57,38.74 248.57,38.74 l -3.1,-282.44 c -227.3,-135.42 -445.97,-98.32 -445.97,-98.32" style="fill:#a28052;fill-opacity:1;fill-rule:nonzero;stroke:none" transform="matrix(0.13333333,0,0,-0.13333333,0,1409.5733)"/>
      <path id="path28" d="m 1351.07,6688.63 c 0,0 -9.21,140.42 -101.23,156.48 -92.02,16.07 -146.67,-102.72 -144.94,-195.59 1.74,-92.86 52.88,-151.43 123.06,-150.48 70.19,0.95 127.94,69.59 123.11,189.59" style="fill:#e9cbae;fill-opacity:1;fill-rule:nonzero;stroke:none" transform="matrix(0.13333333,0,0,-0.13333333,0,1409.5733)"/>
      <path id="path29" d="m 1351.07,6688.63 c 0,0 -9.21,140.42 -101.23,156.48 -92.02,16.07 -146.67,-102.72 -144.94,-195.59 1.74,-92.86 52.88,-151.43 123.06,-150.48 70.19,0.95 127.94,69.59 123.11,189.59 z" style="fill:none;stroke:#231f20;stroke-width:60;stroke-linecap:round;stroke-linejoin:round;stroke-miterlimit:10;stroke-dasharray:none;stroke-opacity:1" transform="matrix(0.13333333,0,0,-0.13333333,0,1409.5733)"/>
      <path id="path30" d="m 1681.3,7033.72 c 0,0 -15.05,-370.39 -410.75,-287.57 0,0 -46.21,-49.1 -23.01,-162.07 0,0 516.36,-185.47 680.97,392.13 l -247.21,57.51" style="fill:#a72a2b;fill-opacity:1;fill-rule:nonzero;stroke:none" transform="matrix(0.13333333,0,0,-0.13333333,0,1409.5733)"/>
      <path id="path31" d="m 1681.3,7033.72 c 0,0 -15.05,-370.39 -410.75,-287.57 0,0 -46.21,-49.1 -23.01,-162.07 0,0 516.36,-185.47 680.97,392.13 z" style="fill:none;stroke:#231f20;stroke-width:60;stroke-linecap:round;stroke-linejoin:round;stroke-miterlimit:10;stroke-dasharray:none;stroke-opacity:1" transform="matrix(0.13333333,0,0,-0.13333333,0,1409.5733)"/>
      <path id="path32" d="m 1344.41,8465.47 c 0,0 -708.84,-252.18 -632.109,-472.13 76.726,-219.95 465.589,-111.55 465.589,-111.55" style="fill:#a72a2b;fill-opacity:1;fill-rule:nonzero;stroke:#231f20;stroke-width:60;stroke-linecap:round;stroke-linejoin:round;stroke-miterlimit:10;stroke-dasharray:none;stroke-opacity:1" transform="matrix(0.13333333,0,0,-0.13333333,0,1409.5733)"/>
      <path id="path33" d="m 1101.43,10144.8 c 0,0 -61.15,18.2 -159.598,36.3 -98.445,18 -122.965,32.1 -87.348,126.8 35.618,94.7 87.192,127.3 115.735,80.3 28.539,-47 92.691,-113.6 193.791,-193.5 l -62.58,-49.9" style="fill:#a72a2b;fill-opacity:1;fill-rule:nonzero;stroke:none" transform="matrix(0.13333333,0,0,-0.13333333,0,1409.5733)"/>
      <path id="path34" d="m 1101.43,10144.8 c 0,0 -61.15,18.2 -159.598,36.3 -98.445,18 -122.965,32.1 -87.348,126.8 35.618,94.7 87.192,127.3 115.735,80.3 28.539,-47 92.691,-113.6 193.791,-193.5 z" style="fill:none;stroke:#231f20;stroke-width:60;stroke-linecap:round;stroke-linejoin:round;stroke-miterlimit:10;stroke-dasharray:none;stroke-opacity:1" transform="matrix(0.13333333,0,0,-0.13333333,0,1409.5733)"/>
      <path id="path35" d="m 1033.6,10314.5 c -14.45,13.2 -38.686,40 -46.698,57.9 -12.089,27 -16.664,62.1 31.028,74.7 81.76,21.7 130.46,42.7 138.02,-37.6 7.55,-80.3 52.24,-143.8 96.7,-143 l -88.64,-71.8 -130.41,119.8" style="fill:#a72a2b;fill-opacity:1;fill-rule:nonzero;stroke:none" transform="matrix(0.13333333,0,0,-0.13333333,0,1409.5733)"/>
      <path id="path36" d="m 1033.6,10314.5 c -14.45,13.2 -38.686,40 -46.698,57.9 -12.089,27 -16.664,62.1 31.028,74.7 81.76,21.7 130.46,42.7 138.02,-37.6 7.55,-80.3 52.24,-143.8 96.7,-143 l -88.64,-71.8 z" style="fill:none;stroke:#231f20;stroke-width:60;stroke-linecap:round;stroke-linejoin:round;stroke-miterlimit:10;stroke-dasharray:none;stroke-opacity:1" transform="matrix(0.13333333,0,0,-0.13333333,0,1409.5733)"/>
      <path id="path37" d="m 990.52,10246.6 c 0,0 43.34,-20 138.17,-80.1" style="fill:#a72a2b;fill-opacity:1;fill-rule:nonzero;stroke:#231f20;stroke-width:60;stroke-linecap:round;stroke-linejoin:round;stroke-miterlimit:10;stroke-dasharray:none;stroke-opacity:1" transform="matrix(0.13333333,0,0,-0.13333333,0,1409.5733)"/>
      <path id="path38" d="m 1101.43,10216.3 c 143.15,144 699.72,364.6 1250.88,-155.4 700.43,-660.73 758.22,-1789.71 651.03,-2244.35 C 2919.61,7461.4 2460.61,6674.5 1633.7,7013.9 c -793.61,325.74 -49.39,958.39 -366.57,1796.4 -218.97,578.52 -605.657,963.19 -165.7,1406" style="fill:#a72a2b;fill-opacity:1;fill-rule:nonzero;stroke:none" transform="matrix(0.13333333,0,0,-0.13333333,0,1409.5733)"/>
      <path id="path39" d="m 1101.43,10216.3 c 143.15,144 699.72,364.6 1250.88,-155.4 700.43,-660.73 758.22,-1789.71 651.03,-2244.35 C 2919.61,7461.4 2460.61,6674.5 1633.7,7013.9 c -793.61,325.74 -49.39,958.39 -366.57,1796.4 -218.97,578.52 -605.657,963.19 -165.7,1406 z" style="fill:none;stroke:#231f20;stroke-width:60;stroke-linecap:round;stroke-linejoin:round;stroke-miterlimit:10;stroke-dasharray:none;stroke-opacity:1" transform="matrix(0.13333333,0,0,-0.13333333,0,1409.5733)"/>
      <path id="path40" d="m 2054.2,7736.67 c 0,0 932.66,94.43 986.65,670.03 0,0 199.76,-181.01 12.09,-438.09 -187.67,-257.08 -603.78,-445.63 -1002.25,-473.91 l 3.51,241.97" style="fill:#a72a2b;fill-opacity:1;fill-rule:nonzero;stroke:none" transform="matrix(0.13333333,0,0,-0.13333333,0,1409.5733)"/>
      <path id="path41" d="m 2054.2,7736.67 c 0,0 932.66,94.43 986.65,670.03 0,0 199.76,-181.01 12.09,-438.09 -187.67,-257.08 -603.78,-445.63 -1002.25,-473.91 z" style="fill:none;stroke:#231f20;stroke-width:60;stroke-linecap:round;stroke-linejoin:round;stroke-miterlimit:10;stroke-dasharray:none;stroke-opacity:1" transform="matrix(0.13333333,0,0,-0.13333333,0,1409.5733)"/>
      <path id="path42" d="m 2550.85,8604.16 c 0,0 -44.53,-284.58 -282.87,-268.74 -238.34,15.85 -344.97,373.66 -344.97,413.71 0,0 204.12,-107.68 335.8,-127.73 85.2,-12.97 292.04,-17.24 292.04,-17.24" style="fill:#231f20;fill-opacity:1;fill-rule:nonzero;stroke:none" transform="matrix(0.13333333,0,0,-0.13333333,0,1409.5733)"/>
      <path id="path43" d="m 1541.89,10153 c -7.67,-18.6 -44.39,-1 -55.37,8.4 -51.1,43.9 -11.72,75.2 35.55,39 11.48,-8.8 25.05,-34.7 19.82,-47.4" style="fill:#801f1f;fill-opacity:1;fill-rule:nonzero;stroke:none" transform="matrix(0.13333333,0,0,-0.13333333,0,1409.5733)"/>
      <path id="path44" d="m 1510.32,9984.96 c 11.61,18.44 47.51,-7.16 57.48,-19.23 46.41,-56.23 -1.36,-82.36 -45.09,-35 -10.62,11.51 -20.32,41.63 -12.39,54.23" style="fill:#801f1f;fill-opacity:1;fill-rule:nonzero;stroke:none" transform="matrix(0.13333333,0,0,-0.13333333,0,1409.5733)"/>
      <path id="path45" d="m 1218.93,10231.5 c 5.62,15.8 36.99,2.6 46.54,-4.8 44.47,-34.5 12.92,-62.2 -28.02,-34 -9.95,6.9 -22.35,27.9 -18.52,38.8" style="fill:#801f1f;fill-opacity:1;fill-rule:nonzero;stroke:none" transform="matrix(0.13333333,0,0,-0.13333333,0,1409.5733)"/>
      <path id="path46" d="m 1665.65,10086.2 c 8.83,12.9 36.14,-5 43.72,-13.4 35.3,-39.3 -1.03,-57.6 -34.29,-24.5 -8.08,8 -15.45,29.1 -9.43,37.9" style="fill:#801f1f;fill-opacity:1;fill-rule:nonzero;stroke:none" transform="matrix(0.13333333,0,0,-0.13333333,0,1409.5733)"/>
      <path id="path47" d="m 1971.03,7906.06 c -15.15,-11.2 -37.56,20.39 -42.31,33.14 -22.1,59.36 25.52,65.54 48.02,14.11 5.46,-12.5 4.64,-39.61 -5.71,-47.25" style="fill:#801f1f;fill-opacity:1;fill-rule:nonzero;stroke:none" transform="matrix(0.13333333,0,0,-0.13333333,0,1409.5733)"/>
      <path id="path48" d="m 1298.79,10012 c 15.29,15.6 44.9,-17.12 52.06,-31.05 33.34,-64.83 -18.91,-80.16 -51.52,-24.56 -7.92,13.51 -10.97,45.01 -0.54,55.61" style="fill:#801f1f;fill-opacity:1;fill-rule:nonzero;stroke:none" transform="matrix(0.13333333,0,0,-0.13333333,0,1409.5733)"/>
      <path id="path49" d="m 1139.62,9945.95 c -17.91,-9.25 -34.47,27.98 -36.74,42.28 -10.56,66.57 39.73,64.87 52.31,6.7 3.06,-14.15 -3.36,-42.68 -15.57,-48.98" style="fill:#801f1f;fill-opacity:1;fill-rule:nonzero;stroke:none" transform="matrix(0.13333333,0,0,-0.13333333,0,1409.5733)"/>
      <path id="path50" d="m 1017.37,9836.86 c 12.18,15.38 26.14,-15.32 28.59,-28.54 11.39,-61.57 -24.45,-77.71 -36.8,-25.01 -3,12.8 -0.11,43.05 8.21,53.55" style="fill:#801f1f;fill-opacity:1;fill-rule:nonzero;stroke:none" transform="matrix(0.13333333,0,0,-0.13333333,0,1409.5733)"/>
      <path id="path51" d="m 1164.78,9768.67 c 10.37,16.11 27.4,-12.29 31.22,-24.87 17.8,-58.58 -15.8,-77.76 -33.59,-27.87 -4.33,12.12 -4.7,41.74 2.37,52.74" style="fill:#801f1f;fill-opacity:1;fill-rule:nonzero;stroke:none" transform="matrix(0.13333333,0,0,-0.13333333,0,1409.5733)"/>
      <path id="path52" d="m 1352.75,9773.87 c 15.66,15.17 44.45,-18.24 51.26,-32.34 31.72,-65.65 -20.9,-79.68 -52.11,-23.28 -7.58,13.71 -9.84,45.27 0.85,55.62" style="fill:#801f1f;fill-opacity:1;fill-rule:nonzero;stroke:none" transform="matrix(0.13333333,0,0,-0.13333333,0,1409.5733)"/>
      <path id="path53" d="m 1133.55,9458.47 c -17.98,-12.33 -40.78,25.41 -45.15,40.45 -20.3,70.02 33.91,75.07 55.27,14.24 5.19,-14.77 2.15,-46.27 -10.12,-54.69" style="fill:#801f1f;fill-opacity:1;fill-rule:nonzero;stroke:none" transform="matrix(0.13333333,0,0,-0.13333333,0,1409.5733)"/>
      <path id="path54" d="m 1261.37,9381.29 c 7.89,21.32 32.91,-8.02 39.89,-21.89 32.51,-64.57 -0.31,-94.91 -30.9,-40.53 -7.43,13.21 -14.37,47.87 -8.99,62.42" style="fill:#801f1f;fill-opacity:1;fill-rule:nonzero;stroke:none" transform="matrix(0.13333333,0,0,-0.13333333,0,1409.5733)"/>
      <path id="path55" d="m 1343.11,9524.86 c 15,15.82 45.19,-16.32 52.6,-30.12 34.49,-64.23 -17.48,-80.49 -51.07,-25.48 -8.17,13.37 -11.77,44.8 -1.53,55.6" style="fill:#801f1f;fill-opacity:1;fill-rule:nonzero;stroke:none" transform="matrix(0.13333333,0,0,-0.13333333,0,1409.5733)"/>
      <path id="path56" d="m 1581.36,9650.47 c -13.41,-3.76 -29.8,23.83 -32.84,33.84 -14.17,46.63 25.89,38.48 40.94,-2.79 3.66,-10.03 1.05,-28.48 -8.1,-31.05" style="fill:#801f1f;fill-opacity:1;fill-rule:nonzero;stroke:none" transform="matrix(0.13333333,0,0,-0.13333333,0,1409.5733)"/>
      <path id="path57" d="m 1489.14,9241.44 c 15.8,18.14 43.3,-18.42 49.66,-34.14 29.57,-73.18 -22.57,-92.01 -51.88,-29.35 -7.13,15.23 -8.56,51.11 2.22,63.49" style="fill:#801f1f;fill-opacity:1;fill-rule:nonzero;stroke:none" transform="matrix(0.13333333,0,0,-0.13333333,0,1409.5733)"/>
      <path id="path58" d="m 1285.54,9119.04 c 4.48,24.15 31.51,-5.15 39.8,-19.54 38.62,-66.96 12.26,-103.7 -23.24,-47.66 -8.62,13.61 -19.62,50.71 -16.56,67.2" style="fill:#801f1f;fill-opacity:1;fill-rule:nonzero;stroke:none" transform="matrix(0.13333333,0,0,-0.13333333,0,1409.5733)"/>
      <path id="path59" d="m 1463,8938.27 c 16.9,-6.68 27.39,-52.89 27.79,-67.25 1.89,-66.86 -42.47,-23.99 -47.08,37.28 -1.12,14.89 7.76,34.53 19.29,29.97" style="fill:#801f1f;fill-opacity:1;fill-rule:nonzero;stroke:none" transform="matrix(0.13333333,0,0,-0.13333333,0,1409.5733)"/>
      <path id="path60" d="m 1517.03,8555.55 c -16.09,-5.96 -28.45,27.39 -29.63,39.76 -5.5,57.57 38.19,50.91 45.91,0.17 1.87,-12.32 -5.29,-35.86 -16.28,-39.93" style="fill:#801f1f;fill-opacity:1;fill-rule:nonzero;stroke:none" transform="matrix(0.13333333,0,0,-0.13333333,0,1409.5733)"/>
      <path id="path61" d="m 1723.05,8508.77 c 17.38,13.16 41.93,-23.48 46.99,-38.3 23.56,-68.99 -30.36,-76.57 -54.54,-16.81 -5.88,14.52 -4.31,46.12 7.55,55.11" style="fill:#801f1f;fill-opacity:1;fill-rule:nonzero;stroke:none" transform="matrix(0.13333333,0,0,-0.13333333,0,1409.5733)"/>
      <path id="path62" d="m 1744.78,8113.99 c 11.86,16.5 32.83,-13.64 37.71,-26.89 22.71,-61.66 -16.63,-80.66 -39.1,-28.07 -5.45,12.78 -6.71,43.7 1.39,54.96" style="fill:#801f1f;fill-opacity:1;fill-rule:nonzero;stroke:none" transform="matrix(0.13333333,0,0,-0.13333333,0,1409.5733)"/>
      <path id="path63" d="m 1420.3,7343.24 c -19.44,-18.37 -36.96,25.88 -39.26,44.23 -10.73,85.46 43.6,100.18 56.59,26.52 3.16,-17.9 -4.07,-58.21 -17.33,-70.75" style="fill:#801f1f;fill-opacity:1;fill-rule:nonzero;stroke:none" transform="matrix(0.13333333,0,0,-0.13333333,0,1409.5733)"/>
      <path id="path64" d="m 1530.25,7253.6 c 14.49,19.05 31.85,-18.1 35.02,-34.18 14.74,-74.89 -28.34,-95.41 -44.1,-31.37 -3.83,15.56 -0.81,52.55 9.08,65.55" style="fill:#801f1f;fill-opacity:1;fill-rule:nonzero;stroke:none" transform="matrix(0.13333333,0,0,-0.13333333,0,1409.5733)"/>
      <path id="path65" d="m 2167.39,7250.12 c -20.14,3.2 -3.1,36.2 6.4,46.75 44.23,49.12 79.32,22.04 43.03,-22.67 -8.81,-10.87 -35.68,-26.26 -49.43,-24.08" style="fill:#801f1f;fill-opacity:1;fill-rule:nonzero;stroke:none" transform="matrix(0.13333333,0,0,-0.13333333,0,1409.5733)"/>
      <path id="path66" d="m 2335.5,7194.17 c 20.76,-10.54 -4.01,-49.81 -16.23,-61.12 -56.89,-52.62 -88.72,-5.23 -41.15,43.9 11.55,11.94 43.21,24.42 57.38,17.22" style="fill:#801f1f;fill-opacity:1;fill-rule:nonzero;stroke:none" transform="matrix(0.13333333,0,0,-0.13333333,0,1409.5733)"/>
      <path id="path67" d="m 2453,7347.95 c 17.15,-6.18 1.14,-38.46 -7.45,-48.21 -40,-45.41 -68.98,-12.06 -35.98,29.84 8.02,10.18 31.72,22.59 43.43,18.37" style="fill:#801f1f;fill-opacity:1;fill-rule:nonzero;stroke:none" transform="matrix(0.13333333,0,0,-0.13333333,0,1409.5733)"/>
      <path id="path68" d="m 2567.52,7258.63 c -17.77,4.24 -2.77,35.54 5.6,45.32 38.97,45.53 69.95,17.13 37.99,-24.54 -7.77,-10.12 -31.46,-23.68 -43.59,-20.78" style="fill:#801f1f;fill-opacity:1;fill-rule:nonzero;stroke:none" transform="matrix(0.13333333,0,0,-0.13333333,0,1409.5733)"/>
      <path id="path69" d="m 2726.92,7557.62 c 21.63,-2.76 13.52,-46.11 6.76,-60.24 -31.46,-65.76 -75.28,-33.43 -50.72,26.17 5.96,14.48 29.2,35.96 43.96,34.07" style="fill:#801f1f;fill-opacity:1;fill-rule:nonzero;stroke:none" transform="matrix(0.13333333,0,0,-0.13333333,0,1409.5733)"/>
      <path id="path70" d="m 2539.02,8072.06 c 14.9,8.85 30.93,-22.29 33.58,-34.46 12.31,-56.62 -30.91,-57.8 -44.55,-8.42 -3.31,12 0.8,36.83 10.97,42.88" style="fill:#801f1f;fill-opacity:1;fill-rule:nonzero;stroke:none" transform="matrix(0.13333333,0,0,-0.13333333,0,1409.5733)"/>
      <path id="path71" d="m 2661.08,8239.37 c -14.02,-7.66 -26.47,21.61 -28.06,32.92 -7.43,52.65 31.65,52.29 40.75,6.27 2.21,-11.18 -3.11,-33.95 -12.69,-39.19" style="fill:#801f1f;fill-opacity:1;fill-rule:nonzero;stroke:none" transform="matrix(0.13333333,0,0,-0.13333333,0,1409.5733)"/>
      <path id="path72" d="m 2853.89,8270.75 c -25.03,-9.49 -42.37,42.26 -43.57,61.5 -5.6,89.58 61.21,79.8 70.57,0.9 2.27,-19.17 -9.91,-55.91 -27,-62.4" style="fill:#801f1f;fill-opacity:1;fill-rule:nonzero;stroke:none" transform="matrix(0.13333333,0,0,-0.13333333,0,1409.5733)"/>
      <path id="path73" d="m 2887.19,8610.47 c 19,3.94 31.56,-36.03 32.27,-50.26 3.29,-66.25 -47.07,-51.05 -53.31,7.83 -1.52,14.31 8.06,39.74 21.04,42.43" style="fill:#801f1f;fill-opacity:1;fill-rule:nonzero;stroke:none" transform="matrix(0.13333333,0,0,-0.13333333,0,1409.5733)"/>
      <path id="path74" d="m 1885.34,10029.5 c 9.29,19.8 48.03,-1.3 59.39,-12.1 52.89,-50.17 8.65,-81.9 -40.51,-40.19 -11.94,10.13 -25.22,38.89 -18.88,52.29" style="fill:#801f1f;fill-opacity:1;fill-rule:nonzero;stroke:none" transform="matrix(0.13333333,0,0,-0.13333333,0,1409.5733)"/>
      <path id="path75" d="m 1635.18,10315.6 c 7.98,15 39.89,-0.8 49.19,-8.9 43.27,-37.7 6.07,-61.9 -34.21,-30.6 -9.78,7.6 -20.43,29.3 -14.98,39.5" style="fill:#801f1f;fill-opacity:1;fill-rule:nonzero;stroke:none" transform="matrix(0.13333333,0,0,-0.13333333,0,1409.5733)"/>
      <path id="path76" d="m 1970.91,10221.1 c -3.45,-17.4 -38.95,-9.6 -50.3,-3.7 -52.82,27.2 -23.66,61.6 24.43,40.1 11.68,-5.3 28.23,-24.6 25.87,-36.4" style="fill:#801f1f;fill-opacity:1;fill-rule:nonzero;stroke:none" transform="matrix(0.13333333,0,0,-0.13333333,0,1409.5733)"/>
      <path id="path77" d="m 2114.43,10062.6 c 9.4,13.6 38.47,-5.3 46.54,-14.2 37.57,-41.5 -1.1,-60.84 -36.5,-25.9 -8.6,8.5 -16.46,30.8 -10.04,40.1" style="fill:#801f1f;fill-opacity:1;fill-rule:nonzero;stroke:none" transform="matrix(0.13333333,0,0,-0.13333333,0,1409.5733)"/>
      <path id="path78" d="m 2371.22,9838.19 c -9.12,-19.8 -48.04,0.95 -59.49,11.63 -53.3,49.75 -9.31,81.84 40.18,40.54 12.02,-10.04 25.54,-38.65 19.31,-52.17" style="fill:#801f1f;fill-opacity:1;fill-rule:nonzero;stroke:none" transform="matrix(0.13333333,0,0,-0.13333333,0,1409.5733)"/>
      <path id="path79" d="m 2261.44,9188.22 c 44.52,-141.11 3.46,-279.84 -91.7,-309.86 -95.15,-30.02 -208.38,60.04 -252.9,201.15 -44.52,141.11 -3.46,279.83 91.7,309.85 95.15,30.02 208.38,-60.03 252.9,-201.14" style="fill:#e9cbae;fill-opacity:1;fill-rule:nonzero;stroke:none" transform="matrix(0.13333333,0,0,-0.13333333,0,1409.5733)"/>
      <path id="path80" d="m 2261.44,9188.22 c 44.52,-141.11 3.46,-279.84 -91.7,-309.86 -95.15,-30.02 -208.38,60.04 -252.9,201.15 -44.52,141.11 -3.46,279.83 91.7,309.85 95.15,30.02 208.38,-60.03 252.9,-201.14 z" style="fill:none;stroke:#231f20;stroke-width:60;stroke-linecap:round;stroke-linejoin:round;stroke-miterlimit:10;stroke-dasharray:none;stroke-opacity:1" transform="matrix(0.13333333,0,0,-0.13333333,0,1409.5733)"/>
      <path id="path81" d="m 2270.3,9127.54 c 28.38,-76.93 9.32,-154.81 -42.56,-173.95 -51.88,-19.14 -116.94,27.72 -145.32,104.65 -28.38,76.93 -9.32,154.81 42.56,173.95 51.88,19.14 116.94,-27.72 145.32,-104.65" style="fill:#231f20;fill-opacity:1;fill-rule:nonzero;stroke:none" transform="matrix(0.13333333,0,0,-0.13333333,0,1409.5733)"/>
      <path id="path82" d="m 2697.88,9252.88 c 25.74,-130.36 -24.66,-250.12 -112.57,-267.48 -87.92,-17.36 -180.05,74.25 -205.79,204.62 -25.75,130.36 24.65,250.12 112.57,267.48 87.91,17.36 180.05,-74.25 205.79,-204.62" style="fill:#e9cbae;fill-opacity:1;fill-rule:nonzero;stroke:none" transform="matrix(0.13333333,0,0,-0.13333333,0,1409.5733)"/>
      <path id="path83" d="m 2697.88,9252.88 c 25.74,-130.36 -24.66,-250.12 -112.57,-267.48 -87.92,-17.36 -180.05,74.25 -205.79,204.62 -25.75,130.36 24.65,250.12 112.57,267.48 87.91,17.36 180.05,-74.25 205.79,-204.62 z" style="fill:none;stroke:#231f20;stroke-width:60;stroke-linecap:round;stroke-linejoin:round;stroke-miterlimit:10;stroke-dasharray:none;stroke-opacity:1" transform="matrix(0.13333333,0,0,-0.13333333,0,1409.5733)"/>
      <path id="path84" d="m 2699.77,9197.84 c 17.7,-71.48 -7.03,-139.11 -55.23,-151.04 -48.21,-11.94 -101.64,36.33 -119.34,107.82 -17.7,71.48 7.03,139.1 55.24,151.04 48.2,11.94 101.63,-36.34 119.33,-107.82" style="fill:#231f20;fill-opacity:1;fill-rule:nonzero;stroke:none" transform="matrix(0.13333333,0,0,-0.13333333,0,1409.5733)"/>
      <path id="path85" d="m 2439.96,8938.45 c 0,0 279.02,168.19 360.17,41.51 81.16,-126.69 -86.29,-292.49 -358.05,-207.61" style="fill:#a72a2b;fill-opacity:1;fill-rule:nonzero;stroke:#231f20;stroke-width:60;stroke-linecap:round;stroke-linejoin:round;stroke-miterlimit:10;stroke-dasharray:none;stroke-opacity:1" transform="matrix(0.13333333,0,0,-0.13333333,0,1409.5733)"/>
      <path id="path86" d="m 1852.97,8696.92 c 0,0 20.78,112.05 147.54,97.51" style="fill:none;stroke:#231f20;stroke-width:60;stroke-linecap:round;stroke-linejoin:round;stroke-miterlimit:10;stroke-dasharray:none;stroke-opacity:1" transform="matrix(0.13333333,0,0,-0.13333333,0,1409.5733)"/>
      <path id="path87" d="m 2050.69,8500 c 0,0 273.65,-1.41 313.81,-130.1 0,0 -229.5,-92.88 -313.81,130.1" style="fill:#a72a2b;fill-opacity:1;fill-rule:nonzero;stroke:none" transform="matrix(0.13333333,0,0,-0.13333333,0,1409.5733)"/>
      <path id="path88" d="m 2550.85,8604.16 c 0,0 -44.53,-284.58 -282.87,-268.74 -238.34,15.85 -344.97,373.66 -344.97,413.71" style="fill:none;stroke:#231f20;stroke-width:60;stroke-linecap:round;stroke-linejoin:round;stroke-miterlimit:10;stroke-dasharray:none;stroke-opacity:1" transform="matrix(0.13333333,0,0,-0.13333333,0,1409.5733)"/>
      <path id="path89" d="m 1945.84,8721.74 c 0,0 174.85,-137.11 581.09,-135.37 0,0 -46.19,-109.22 -288.3,-56.36 -242.11,52.87 -289.29,154.09 -292.79,191.73" style="fill:#e9cbae;fill-opacity:1;fill-rule:nonzero;stroke:none" transform="matrix(0.13333333,0,0,-0.13333333,0,1409.5733)"/>
      <path id="path90" d="m 2671.38,8636.05 c 0,0 -345.74,-122.63 -748.37,113.08" style="fill:none;stroke:#231f20;stroke-width:60;stroke-linecap:round;stroke-linejoin:round;stroke-miterlimit:10;stroke-dasharray:none;stroke-opacity:1" transform="matrix(0.13333333,0,0,-0.13333333,0,1409.5733)"/>
      <path id="path91" d="m 1768.62,9472.62 c 0,0 80.77,291.67 369.32,56.06" style="fill:none;stroke:#231f20;stroke-width:60;stroke-linecap:round;stroke-linejoin:round;stroke-miterlimit:10;stroke-dasharray:none;stroke-opacity:1" transform="matrix(0.13333333,0,0,-0.13333333,0,1409.5733)"/>
      <path id="path92" d="m 2354.41,9552.35 c 0,0 99.35,199.24 226.93,56.38" style="fill:none;stroke:#231f20;stroke-width:60;stroke-linecap:round;stroke-linejoin:round;stroke-miterlimit:10;stroke-dasharray:none;stroke-opacity:1" transform="matrix(0.13333333,0,0,-0.13333333,0,1409.5733)"/>
      <path id="path93" d="m 1712.18,7286.49 c 0,0 -201.92,533.46 -786.239,1332.16 -211.382,288.94 -446.554,594.78 -759.648,1064.41 -95.0547,142.58 -73.0078,285.53 24.531,355.34 104.781,75 232.774,52.3 300.278,-58.87 230.16,-379.11 624.758,-1197.42 624.758,-1197.42 0,0 520.87,-1060.26 767.11,-1395.98" style="fill:#a95722;fill-opacity:1;fill-rule:nonzero;stroke:#231f20;stroke-width:60;stroke-linecap:round;stroke-linejoin:round;stroke-miterlimit:10;stroke-dasharray:none;stroke-opacity:1" transform="matrix(0.13333333,0,0,-0.13333333,0,1409.5733)"/>
      <path id="path94" d="m 1695.81,7191.77 c 24.25,-47.39 106.34,-53.86 183.36,-14.45 77.02,39.4 119.8,109.76 95.55,157.15 -24.24,47.39 -106.33,53.87 -183.35,14.46 -77.02,-39.4 -119.8,-109.77 -95.56,-157.16" style="fill:#a95722;fill-opacity:1;fill-rule:nonzero;stroke:none" transform="matrix(0.13333333,0,0,-0.13333333,0,1409.5733)"/>
      <path id="path95" d="m 1695.81,7191.77 c 24.25,-47.39 106.34,-53.86 183.36,-14.45 77.02,39.4 119.8,109.76 95.55,157.15 -24.24,47.39 -106.33,53.87 -183.35,14.46 -77.02,-39.4 -119.8,-109.77 -95.56,-157.16 z" style="fill:none;stroke:#231f20;stroke-width:60;stroke-linecap:round;stroke-linejoin:round;stroke-miterlimit:10;stroke-dasharray:none;stroke-opacity:1" transform="matrix(0.13333333,0,0,-0.13333333,0,1409.5733)"/>
      <path id="path96" d="m 859.684,8103.17 c 0,0 113.488,-28.55 274.616,3.7" style="fill:none;stroke:#231f20;stroke-width:60;stroke-linecap:round;stroke-linejoin:round;stroke-miterlimit:10;stroke-dasharray:none;stroke-opacity:1" transform="matrix(0.13333333,0,0,-0.13333333,0,1409.5733)"/>
      <path id="path97" d="m 1593.63,8075.63 c -11.2,12.9 -23.7,21.81 -36.7,27.5 7.3,19.01 10.5,39.51 6,60.31 21.2,22.99 88.9,109.2 2.2,217.99 -91.8,115.31 -173.8,10 -173.8,10 -16.9,5 -37,7.91 -60.7,8.11 -200.5,1.2 -304.6,-218.4 -234.7,-426.5 69.8,-208.21 235.7,-185.2 277.4,-172.61 63,19.11 166.4,108.1 213.6,154.11 28.8,27.99 35.4,88.19 6.7,121.09" style="fill:#e9cbae;fill-opacity:1;fill-rule:nonzero;stroke:none" transform="matrix(0.13333333,0,0,-0.13333333,0,1409.5733)"/>
      <path id="path98" d="m 1289.82,8187.98 c 0,0 167,106.5 250.8,10.9 31.1,-35.6 30.8,-73.2 18.1,-106.4" style="fill:none;stroke:#231f20;stroke-width:60;stroke-linecap:round;stroke-linejoin:round;stroke-miterlimit:10;stroke-dasharray:none;stroke-opacity:1" transform="matrix(0.13333333,0,0,-0.13333333,0,1409.5733)"/>
      <path id="path99" d="m 1368.33,8041.04 c 0,0 145.05,117.91 227,23.98 28.75,-32.96 17.68,-89.17 -6.69,-121.18" style="fill:none;stroke:#231f20;stroke-width:60;stroke-linecap:round;stroke-linejoin:round;stroke-miterlimit:10;stroke-dasharray:none;stroke-opacity:1" transform="matrix(0.13333333,0,0,-0.13333333,0,1409.5733)"/>
      <path id="path100" d="m 1375.12,7789.78 c 0,0 -207.6,-35.6 -277.4,172.6 -69.9,208.1 34.2,427.7 234.7,426.5 137.8,-0.9 152.8,-95.2 148.6,-154.2" style="fill:none;stroke:#231f20;stroke-width:60;stroke-linecap:round;stroke-linejoin:round;stroke-miterlimit:10;stroke-dasharray:none;stroke-opacity:1" transform="matrix(0.13333333,0,0,-0.13333333,0,1409.5733)"/>
      <path id="path101" d="m 1393.12,8380.77 c 0,0 81.91,105.27 173.72,-9.97 91.81,-115.24 16.08,-194.1 0,-210.52" style="fill:none;stroke:#231f20;stroke-width:60;stroke-linecap:round;stroke-linejoin:round;stroke-miterlimit:10;stroke-dasharray:none;stroke-opacity:1" transform="matrix(0.13333333,0,0,-0.13333333,0,1409.5733)"/>
      <path id="path102" d="m 2055.12,7465.18 c -7.2,-6.5 -14.8,-11.7 -22.6,-15.6 -0.1,-0.1 -0.2,-0.2 -0.4,-0.2 -51.8,-26.2 -110.8,-0.2 -110.8,-0.2 -1.5,-1.6 -3,-3.1 -4.6,-4.7 -1.4,0.6 -2.2,0.9 -2.2,0.9 -11.4,-12.1 -25.7,-24 -43.7,-34.4 0,0 -75,89.4 -168.6,50.4 -82.8,-34.5 -35.5,-103.8 -23.5,-119.3 -37.4,-2.3 -89.5,-3.9 -128,61.8 -13.5,23.1 -19,46.2 -19.3,68.3 0,0 -2.5,0.4 -6.7,1.5 -6.6,1.8 -17.3,5.2 -29.4,11.2 -19.9,9.9 -43.5,26.8 -58.3,55 -16.9,32.1 -15.4,64.7 -4.5,95.1 -1.8,0 -3.5,0.1 -5.1,0.4 -38.6,5.4 -50.6,70.9 -50.6,70.9 0,0 -21.1,138.8 86.6,200.8 0.5,0.3 1.1,0.6 1.7,1 4.6,2.6 9.5,5.1 14.7,7.4 200,90.1 347.9,-26.9 426.2,-125.3 0.6,-0.7 1.2,-1.5 1.8,-2.2 8,10.2 16.9,18.1 26.4,23.9 63.3,38.4 152.3,-19.7 164.6,-135.6 14,-133.1 -9.6,-180.1 -43.7,-211.1" style="fill:#e9cbae;fill-opacity:1;fill-rule:nonzero;stroke:none" transform="matrix(0.13333333,0,0,-0.13333333,0,1409.5733)"/>
      <path id="path103" d="m 1972.17,7638.66 c 0,0 -2.54,48.24 -36.17,95.25 -68,95.03 -223.82,285.63 -462.98,177.86 C 1346.84,7854.91 1370,7702.56 1370,7702.56 c 0,0 9.64,-71.36 52.3,-71.33" style="fill:none;stroke:#231f20;stroke-width:60;stroke-linecap:round;stroke-linejoin:round;stroke-miterlimit:10;stroke-dasharray:none;stroke-opacity:1" transform="matrix(0.13333333,0,0,-0.13333333,0,1409.5733)"/>
      <path id="path104" d="m 1543.94,7772.29 c 0,0 -173.99,-121.73 -113.71,-236.15 29.66,-56.31 81.8,-63.4 81.8,-63.4" style="fill:none;stroke:#231f20;stroke-width:60;stroke-linecap:round;stroke-linejoin:round;stroke-miterlimit:10;stroke-dasharray:none;stroke-opacity:1" transform="matrix(0.13333333,0,0,-0.13333333,0,1409.5733)"/>
      <path id="path105" d="m 1601.42,7624.18 c 0,0 -74.4,-67.7 -76.7,-150.5 -0.7,-23.6 4.6,-48.6 19.2,-73.5 41.9,-71.5 137.4,-61.3 137.4,-61.3 0,0 -1,1.1 -2.6,3.2 -12,15.5 -59.3,84.8 23.5,119.3 93.6,39 168.6,-50.4 168.6,-50.4 18,10.4 32.3,22.3 43.7,34.4 38.5,40.9 43.7,84.8 43.7,84.8" style="fill:none;stroke:#231f20;stroke-width:60;stroke-linecap:round;stroke-linejoin:round;stroke-miterlimit:10;stroke-dasharray:none;stroke-opacity:1" transform="matrix(0.13333333,0,0,-0.13333333,0,1409.5733)"/>
      <path id="path106" d="m 1901.02,7784.28 c 1.6,2.1 3.3,4 5,5.9 8.6,9.6 18.1,16.8 28.2,21.7 62.8,30.5 146.1,-27.5 157.8,-139.3 14,-133.2 -9.5,-180.1 -43.7,-211.2 -5.1,-4.6 -10.4,-8.5 -15.8,-11.8 -0.1,-0.1 -0.2,-0.2 -0.4,-0.2 -47.5,-28.7 -103.8,-9.4 -115.4,-4.9 -1.4,0.6 -2.2,0.9 -2.2,0.9" style="fill:none;stroke:#231f20;stroke-width:60;stroke-linecap:round;stroke-linejoin:round;stroke-miterlimit:10;stroke-dasharray:none;stroke-opacity:1" transform="matrix(0.13333333,0,0,-0.13333333,0,1409.5733)"/>
      <path id="path107" d="m 3041.12,6236.98 c 0,0 190.6,-34.8 445.8,103.4 0,0 0,0 0,0.1 17.9,9.7 36.2,20.3 54.7,31.8 287.6,178.4 500.8,134.4 500.8,134.4 0,0 125.8,-149.8 -313.6,-309.6 -474.9,-172.7 -675.1,-61.9 -675.1,-61.9" style="fill:#e9cbae;fill-opacity:1;fill-rule:nonzero;stroke:#231f20;stroke-width:60;stroke-linecap:round;stroke-linejoin:round;stroke-miterlimit:10;stroke-dasharray:none;stroke-opacity:1" transform="matrix(0.13333333,0,0,-0.13333333,0,1409.5733)"/>
      <path id="path108" d="m 4042.42,6506.68 c 0,0 -213.2,44 -500.8,-134.4 -18.5,-11.5 -36.8,-22.1 -54.7,-31.8 -1.9,8.1 -76.8,343.3 239.9,399.9 268,47.9 315.6,-233.7 315.6,-233.7" style="fill:#e9cbae;fill-opacity:1;fill-rule:nonzero;stroke:none" transform="matrix(0.13333333,0,0,-0.13333333,0,1409.5733)"/>
      <path id="path109" d="m 4042.42,6506.68 c 0,0 -213.2,44 -500.8,-134.4 -18.5,-11.5 -36.8,-22.1 -54.7,-31.8 -1.9,8.1 -76.8,343.3 239.9,399.9 268,47.9 315.6,-233.7 315.6,-233.7 z" style="fill:none;stroke:#231f20;stroke-width:60;stroke-linecap:round;stroke-linejoin:round;stroke-miterlimit:10;stroke-dasharray:none;stroke-opacity:1" transform="matrix(0.13333333,0,0,-0.13333333,0,1409.5733)"/>
      <path id="path110" d="m 3389.02,6461.68 c -1.8,74.9 28.3,131.7 52.6,165.2" style="fill:none;stroke:#231f20;stroke-width:60;stroke-linecap:round;stroke-linejoin:round;stroke-miterlimit:10;stroke-dasharray:none;stroke-opacity:1" transform="matrix(0.13333333,0,0,-0.13333333,0,1409.5733)"/>
      <path id="path111" d="m 3040.95,6242.06 c 0.67,-62.51 12.75,-106.88 12.75,-106.88 0,0 129.83,-87.89 505.33,125.83 375.5,213.72 483.36,141.81 483.36,141.81" style="fill:none;stroke:#231f20;stroke-width:60;stroke-linecap:round;stroke-linejoin:round;stroke-miterlimit:10;stroke-dasharray:none;stroke-opacity:1" transform="matrix(0.13333333,0,0,-0.13333333,0,1409.5733)"/>
      <path id="path112" d="m 3517.08,6624.53 c 0,0 -155.15,18.25 -275.63,-40.45 -171.02,-83.33 -201.61,-237.85 -200.5,-342.02" style="fill:none;stroke:#231f20;stroke-width:60;stroke-linecap:round;stroke-linejoin:round;stroke-miterlimit:10;stroke-dasharray:none;stroke-opacity:1" transform="matrix(0.13333333,0,0,-0.13333333,0,1409.5733)"/>
      <path id="path113" d="m 1155.32,6861.58 c -62,-9.1 -139,-52.9 -222.601,-174.8 -205.403,-299.5 -58.5,-413.6 -58.5,-413.6 188.301,-159.8 527.801,-57.1 527.801,-57.1 0,0 34.4,-71.36 -16.9,-95.6 -166.48,-78.67 -416.804,-21.3 -416.804,-21.3 0,0 -396.5,87 -189.699,504.9 152.699,308.5 306.603,288.9 376.703,257.5 24.9,-11.2 39.2,-23.8 39.2,-23.8" style="fill:#e9cbae;fill-opacity:1;fill-rule:nonzero;stroke:#231f20;stroke-width:60;stroke-linecap:round;stroke-linejoin:round;stroke-miterlimit:10;stroke-dasharray:none;stroke-opacity:1" transform="matrix(0.13333333,0,0,-0.13333333,0,1409.5733)"/>
      <path id="path114" d="m 874.219,6273.18 c 0,0 191.991,199.04 477.131,104.1 107.26,-35.72 50.67,-161.2 50.67,-161.2" style="fill:none;stroke:#231f20;stroke-width:60;stroke-linecap:round;stroke-linejoin:round;stroke-miterlimit:10;stroke-dasharray:none;stroke-opacity:1" transform="matrix(0.13333333,0,0,-0.13333333,0,1409.5733)"/>
      <path id="path115" d="m 1236.38,6401.29 c -48.18,13.53 -26.01,98.83 -26.01,98.83" style="fill:none;stroke:#231f20;stroke-width:60;stroke-linecap:round;stroke-linejoin:round;stroke-miterlimit:10;stroke-dasharray:none;stroke-opacity:1" transform="matrix(0.13333333,0,0,-0.13333333,0,1409.5733)"/>
      <path id="path116" d="m 966.18,6445.94 c 0,0 104.51,49.01 239.1,1.55" style="fill:none;stroke:#231f20;stroke-width:60;stroke-linecap:round;stroke-linejoin:round;stroke-miterlimit:10;stroke-dasharray:none;stroke-opacity:1" transform="matrix(0.13333333,0,0,-0.13333333,0,1409.5733)"/>
    </g>
  </g>
</svg>